# xmcd
# 
# Track frame offsets:
#     150
#     12485
#     44498
#     72192
#     110243
#     141065
#     178673
#     212355
#     250047
#     286671
# 
# Disc length: 4119
# 
# Revision: 4
# Processed by: cddbd v1.5.2PL0 Copyright (c) Steve Scherf et al.
# Submitted via: BonkEnc v1.0
# 
DISCID=8e10150a
DTITLE=Milan Pitkin - V Country estrade
DYEAR=2002
DGENRE=Humour
TTITLE0=Jak jsem zacal koktat
TTITLE1=O krasach domova
TTITLE2=Prvni rande
TTITLE3=Vanocni stromecek
TTITLE4=Jak jsem o vsechno prisel
TTITLE5=O skudcich v zemedelstvi
TTITLE6=Hospodarska geografie
TTITLE7=V Kotli
TTITLE8=U rekvalifikacnich zkousek
TTITLE9=Proc nechci do evropy
EXTD=YEAR: 2002
EXTT0=
EXTT1=
EXTT2=
EXTT3=
EXTT4=
EXTT5=
EXTT6=
EXTT7=
EXTT8=
EXTT9=
PLAYORDER=
